<mxfile host="Electron" modified="2024-03-12T06:59:41.289Z" agent="Mozilla/5.0 (X11; Linux x86_64) AppleWebKit/537.36 (KHTML, like Gecko) draw.io/21.2.1 Chrome/112.0.5615.87 Electron/24.1.2 Safari/537.36" etag="D9b_opsSMEsmDPHsALzd" version="21.2.1" type="device">
  <diagram name="Page-1" id="yn-jal7HCOoHq--7eTg-">
    <mxGraphModel dx="574" dy="1477" grid="1" gridSize="10" guides="1" tooltips="1" connect="1" arrows="1" fold="1" page="1" pageScale="1" pageWidth="850" pageHeight="1100" math="0" shadow="0">
      <root>
        <mxCell id="0" />
        <mxCell id="1" parent="0" />
        <mxCell id="AH9q68YLKDy2fnKQs4N4-1" value="" style="sketch=0;pointerEvents=1;shadow=0;dashed=0;html=1;strokeColor=#6c8ebf;fillColor=#dae8fc;aspect=fixed;labelPosition=center;verticalLabelPosition=bottom;verticalAlign=top;align=center;outlineConnect=0;shape=mxgraph.vvd.cpu;opacity=30;" parent="1" vertex="1">
          <mxGeometry x="47.5" width="330" height="330" as="geometry" />
        </mxCell>
        <mxCell id="AH9q68YLKDy2fnKQs4N4-2" value="&lt;font color=&quot;#a9bcfc&quot;&gt;AI&lt;/font&gt;" style="text;html=1;strokeColor=none;fillColor=none;align=center;verticalAlign=middle;whiteSpace=wrap;rounded=0;fontSize=150;fontStyle=1;" parent="1" vertex="1">
          <mxGeometry x="144.8" y="85" width="150" height="160" as="geometry" />
        </mxCell>
        <mxCell id="sO-QnGpawNS9wBwMaaU0-9" value="" style="shape=trapezoid;perimeter=trapezoidPerimeter;whiteSpace=wrap;html=1;fixedSize=1;rotation=-180;size=39.80000000000001;flipV=1;fillColor=#ffe6cc;strokeColor=#d79b00;" parent="1" vertex="1">
          <mxGeometry x="159.8" y="149.68" width="120" height="79.38" as="geometry" />
        </mxCell>
        <mxCell id="sO-QnGpawNS9wBwMaaU0-16" style="edgeStyle=orthogonalEdgeStyle;rounded=0;orthogonalLoop=1;jettySize=auto;html=1;entryX=0.25;entryY=1;entryDx=0;entryDy=0;dashed=1;" parent="1" source="sO-QnGpawNS9wBwMaaU0-8" target="sO-QnGpawNS9wBwMaaU0-1" edge="1">
          <mxGeometry relative="1" as="geometry">
            <Array as="points">
              <mxPoint x="360" y="120" />
              <mxPoint x="360" />
              <mxPoint x="80" />
              <mxPoint x="80" y="90" />
            </Array>
          </mxGeometry>
        </mxCell>
        <mxCell id="sO-QnGpawNS9wBwMaaU0-8" value="" style="shape=trapezoid;perimeter=trapezoidPerimeter;whiteSpace=wrap;html=1;fixedSize=1;rotation=90;size=39.80000000000001;flipV=1;fillColor=#e1d5e7;strokeColor=#9673a6;" parent="1" vertex="1">
          <mxGeometry x="220.3" y="80" width="120" height="79.38" as="geometry" />
        </mxCell>
        <mxCell id="sO-QnGpawNS9wBwMaaU0-1" value="" style="shape=trapezoid;perimeter=trapezoidPerimeter;whiteSpace=wrap;html=1;fixedSize=1;rotation=90;size=39.80000000000001;fillColor=#d5e8d4;strokeColor=#82b366;" parent="1" vertex="1">
          <mxGeometry x="100" y="80" width="120" height="79.38" as="geometry" />
        </mxCell>
        <mxCell id="sO-QnGpawNS9wBwMaaU0-2" value="&lt;b&gt;Encoder&lt;/b&gt;" style="text;html=1;align=center;verticalAlign=middle;whiteSpace=wrap;rounded=0;" parent="1" vertex="1">
          <mxGeometry x="123.30000000000001" y="104.68" width="70" height="30" as="geometry" />
        </mxCell>
        <mxCell id="sO-QnGpawNS9wBwMaaU0-4" value="&lt;b&gt;Generator&lt;/b&gt;" style="text;html=1;align=center;verticalAlign=middle;whiteSpace=wrap;rounded=0;" parent="1" vertex="1">
          <mxGeometry x="245.3" y="104.68" width="70" height="30" as="geometry" />
        </mxCell>
        <mxCell id="sO-QnGpawNS9wBwMaaU0-6" value="&lt;b&gt;Thinker&lt;/b&gt;" style="text;html=1;align=center;verticalAlign=middle;whiteSpace=wrap;rounded=0;" parent="1" vertex="1">
          <mxGeometry x="184.8" y="181.87" width="70" height="15" as="geometry" />
        </mxCell>
        <mxCell id="sO-QnGpawNS9wBwMaaU0-11" value="&lt;div style=&quot;font-size: 7px;&quot;&gt;&lt;font style=&quot;font-size: 7px;&quot;&gt;&lt;b&gt;Hidden&lt;/b&gt;&lt;/font&gt;&lt;/div&gt;&lt;font style=&quot;font-size: 7px;&quot;&gt;&lt;b&gt;Feature&lt;/b&gt;&lt;/font&gt;" style="rounded=0;whiteSpace=wrap;html=1;align=center;fontSize=7;fillColor=#dae8fc;strokeColor=#6c8ebf;" parent="1" vertex="1">
          <mxGeometry x="204.8" y="104.68" width="30" height="30" as="geometry" />
        </mxCell>
        <mxCell id="sO-QnGpawNS9wBwMaaU0-12" value="&lt;b style=&quot;font-size: 9px;&quot;&gt;Real Image&lt;/b&gt;" style="text;html=1;align=center;verticalAlign=middle;whiteSpace=wrap;rounded=0;fontSize=9;" parent="1" vertex="1">
          <mxGeometry x="39" y="133.68" width="61" height="16" as="geometry" />
        </mxCell>
        <mxCell id="sO-QnGpawNS9wBwMaaU0-13" value="" style="endArrow=classic;html=1;rounded=0;entryX=0.75;entryY=1;entryDx=0;entryDy=0;" parent="1" target="sO-QnGpawNS9wBwMaaU0-1" edge="1">
          <mxGeometry width="50" height="50" relative="1" as="geometry">
            <mxPoint x="20" y="150" as="sourcePoint" />
            <mxPoint x="100" y="230" as="targetPoint" />
          </mxGeometry>
        </mxCell>
        <mxCell id="sO-QnGpawNS9wBwMaaU0-14" value="&lt;b&gt;&lt;font style=&quot;font-size: 9px;&quot;&gt;Think Result&lt;/font&gt;&lt;/b&gt;" style="text;html=1;align=center;verticalAlign=middle;whiteSpace=wrap;rounded=0;fontSize=10;" parent="1" vertex="1">
          <mxGeometry x="187.20000000000002" y="246" width="65.2" height="14" as="geometry" />
        </mxCell>
        <mxCell id="sO-QnGpawNS9wBwMaaU0-15" value="" style="endArrow=classic;html=1;rounded=0;exitX=0.749;exitY=0.999;exitDx=0;exitDy=0;exitPerimeter=0;entryX=0.499;entryY=0.072;entryDx=0;entryDy=0;entryPerimeter=0;" parent="1" target="sO-QnGpawNS9wBwMaaU0-20" edge="1">
          <mxGeometry width="50" height="50" relative="1" as="geometry">
            <mxPoint x="189.91999999999996" y="228.98062" as="sourcePoint" />
            <mxPoint x="189.34999999999997" y="290" as="targetPoint" />
          </mxGeometry>
        </mxCell>
        <mxCell id="sO-QnGpawNS9wBwMaaU0-17" value="" style="endArrow=classic;html=1;rounded=0;dashed=1;entryX=0.5;entryY=0.072;entryDx=0;entryDy=0;entryPerimeter=0;" parent="1" target="sO-QnGpawNS9wBwMaaU0-21" edge="1">
          <mxGeometry width="50" height="50" relative="1" as="geometry">
            <mxPoint x="250" y="230" as="sourcePoint" />
            <mxPoint x="250" y="290" as="targetPoint" />
          </mxGeometry>
        </mxCell>
        <mxCell id="sO-QnGpawNS9wBwMaaU0-19" value="&lt;b style=&quot;font-size: 9px;&quot;&gt;Generated Image&lt;/b&gt;" style="text;html=1;align=center;verticalAlign=middle;whiteSpace=wrap;rounded=0;fontSize=9;" parent="1" vertex="1">
          <mxGeometry x="305" y="35" width="90.7" height="16" as="geometry" />
        </mxCell>
        <mxCell id="sO-QnGpawNS9wBwMaaU0-20" value="&lt;font color=&quot;#336600&quot; style=&quot;font-size: 8px;&quot;&gt;&lt;b style=&quot;&quot;&gt;Real&lt;/b&gt;&lt;/font&gt;&lt;div&gt;&lt;font color=&quot;#336600&quot; style=&quot;font-size: 8px;&quot;&gt;&lt;b style=&quot;&quot;&gt;OB OBj&lt;/b&gt;&lt;/font&gt;&lt;/div&gt;" style="text;html=1;align=center;verticalAlign=middle;whiteSpace=wrap;rounded=0;fontSize=10;" parent="1" vertex="1">
          <mxGeometry x="173.70000000000002" y="290" width="32.1" height="20" as="geometry" />
        </mxCell>
        <mxCell id="sO-QnGpawNS9wBwMaaU0-21" value="&lt;font color=&quot;#990000&quot; style=&quot;font-size: 8px;&quot;&gt;&lt;b style=&quot;&quot;&gt;Fake&lt;/b&gt;&lt;/font&gt;&lt;div&gt;&lt;font color=&quot;#990000&quot; style=&quot;font-size: 8px;&quot;&gt;&lt;b style=&quot;&quot;&gt;Gen OBJ&lt;/b&gt;&lt;/font&gt;&lt;/div&gt;" style="text;html=1;align=center;verticalAlign=middle;whiteSpace=wrap;rounded=0;fontSize=10;" parent="1" vertex="1">
          <mxGeometry x="229" y="290" width="42" height="20" as="geometry" />
        </mxCell>
        <mxCell id="6LaAAARI5ZT1EH5doXgI-1" value="" style="shape=trapezoid;perimeter=trapezoidPerimeter;whiteSpace=wrap;html=1;fixedSize=1;rotation=0;size=39.80000000000001;flipV=1;fillColor=#f8cecc;strokeColor=#b85450;" vertex="1" parent="1">
          <mxGeometry x="159.8" y="10" width="120" height="79.38" as="geometry" />
        </mxCell>
        <mxCell id="6LaAAARI5ZT1EH5doXgI-2" value="&lt;b&gt;Prompt&lt;br&gt;Decoder&lt;br&gt;&lt;/b&gt;" style="text;html=1;align=center;verticalAlign=middle;whiteSpace=wrap;rounded=0;" vertex="1" parent="1">
          <mxGeometry x="184.8" y="28" width="70" height="30" as="geometry" />
        </mxCell>
        <mxCell id="6LaAAARI5ZT1EH5doXgI-5" style="edgeStyle=orthogonalEdgeStyle;rounded=0;orthogonalLoop=1;jettySize=auto;html=1;entryX=0.5;entryY=0;entryDx=0;entryDy=0;" edge="1" parent="1" source="6LaAAARI5ZT1EH5doXgI-4" target="6LaAAARI5ZT1EH5doXgI-1">
          <mxGeometry relative="1" as="geometry" />
        </mxCell>
        <mxCell id="6LaAAARI5ZT1EH5doXgI-4" value="&lt;b style=&quot;font-size: 9px;&quot;&gt;Prompt&lt;br&gt;(txt,bbox,mask,image...)&lt;/b&gt;" style="text;html=1;align=center;verticalAlign=middle;whiteSpace=wrap;rounded=0;fontSize=9;" vertex="1" parent="1">
          <mxGeometry x="157.02999999999997" y="-40" width="125.55" height="16" as="geometry" />
        </mxCell>
      </root>
    </mxGraphModel>
  </diagram>
</mxfile>
